<svg class="svg-icon" style="width: 1em; height: 1em;vertical-align: middle;fill: currentColor;overflow: hidden;" viewBox="0 0 1024 1024" version="1.1" xmlns="http://www.w3.org/2000/svg"><path d="M443.904 887.808C199.104 887.808 0 688.704 0 443.904S199.104 0 443.904 0s443.904 199.104 443.904 443.904-199.104 443.904-443.904 443.904z m0-835.584a392.064 392.064 0 0 0-391.68 391.68 392.128 392.128 0 0 0 391.68 391.744 392.192 392.192 0 0 0 391.744-391.744A392.128 392.128 0 0 0 443.904 52.224z" fill="#4D4D4D" /><path d="M992.32 1018.368a27.008 27.008 0 0 1-18.56-7.552l-235.008-235.136a26.24 26.24 0 0 1 0-36.928 26.24 26.24 0 0 1 36.928 0l235.136 235.008a26.304 26.304 0 0 1 0 37.056 27.2 27.2 0 0 1-18.496 7.552z" fill="#4D4D4D" /></svg>